<svg xmlns="http://www.w3.org/2000/svg" xmlns:xlink="http://www.w3.org/1999/xlink" width="30.959991455078125" height="32" viewBox="0 0 30.959991455078125 32" fill="none">
<path     fill="#3F8CFF"  d="M26.5457 6.60344L17.9397 1.46783C16.4245 0.563659 14.5355 0.563659 13.0203 1.46783L4.41429 6.60344C2.96291 7.46954 2.07401 9.03515 2.07401 10.7253L2.07401 21.2747C2.07401 22.9649 2.96291 24.5305 4.41429 25.3966L13.0203 30.5322C14.5355 31.4363 16.4245 31.4363 17.9397 30.5322L26.5457 25.3966C27.9971 24.5305 28.886 22.9649 28.886 21.2747L28.886 10.7253C28.886 9.03515 27.9971 7.46954 26.5457 6.60344Z">
</path>
<path d="M22.29 13.4266C22.29 12.1145 21.5614 11.8083 20.9547 11.7369L20.7997 11.723L20.5851 11.7156L20.1947 11.7151L17.9553 9.46788L17.8905 9.41342C17.7087 9.28622 17.463 9.30444 17.2995 9.46788C17.1156 9.64385 17.1156 9.93977 17.2995 10.1237L18.883 11.7151L12.4371 11.7151L14.0206 10.1237L14.0751 10.0609C14.2022 9.88339 14.1841 9.63138 14.0206 9.46788C13.8446 9.28396 13.5486 9.28396 13.3647 9.46788L11.1333 11.7151L10.7415 11.7156L10.525 11.723C10.4996 11.7247 10.4739 11.7265 10.4478 11.7288L10.2888 11.7476C9.69661 11.8368 9.03003 12.1715 9.03003 13.4266C9.03003 14.0743 9.16594 14.4982 9.43791 14.7781C9.59782 14.946 9.78983 15.034 9.99774 15.074C10.1896 15.122 10.3977 15.13 10.5975 15.13L20.7226 15.13L20.8756 15.1268C21.026 15.1204 21.1684 15.104 21.3063 15.074C21.8661 14.946 22.29 14.5462 22.29 13.4266ZM10.8359 20.4101L10.8819 20.6213C11.1286 21.6432 11.7472 22.66 13.6848 22.66L17.4031 22.66L17.6009 22.6569C19.3264 22.6021 19.8741 21.8216 20.1431 20.8532L20.2006 20.6266L20.2508 20.3948L20.9375 16.7915L20.9483 16.709C20.9754 16.3273 20.6778 16 20.2898 16L10.894 16L10.8138 16.0048C10.4464 16.0492 10.1787 16.3949 10.2384 16.7755L10.7981 20.1974L10.8359 20.4101ZM15.615 20.0088C16.6227 20.0088 17.4384 19.1838 17.4384 18.1746C17.4384 17.9022 17.6623 17.67 17.9342 17.67C18.2061 17.67 18.43 17.9022 18.43 18.1746C18.43 19.7364 17.1665 21.01 15.615 21.01C14.0636 21.01 12.8 19.7364 12.8 18.1746C12.8 17.9022 13.0239 17.67 13.2959 17.67C13.5677 17.67 13.7917 17.9022 13.7917 18.1746C13.7917 19.1838 14.6074 20.0088 15.615 20.0088Z" fill-rule="evenodd"  fill="#FFFFFF" >
</path>
</svg>
